<?xml version="1.0" encoding="utf-8"?>

<!DOCTYPE svg PUBLIC "-//W3C//DTD SVG 1.1//EN" "http://www.w3.org/Graphics/SVG/1.1/DTD/svg11.dtd">
<!-- Uploaded to: SVG Repo, www.svgrepo.com, Generator: SVG Repo Mixer Tools -->
<svg height="800px" width="800px" version="1.1" id="_x32_" xmlns="http://www.w3.org/2000/svg" xmlns:xlink="http://www.w3.org/1999/xlink" 
	 viewBox="0 0 512 512"  xml:space="preserve">
<style type="text/css">
	.st0{fill:#000000;}
</style>
<g>
	<path class="st0" d="M464.182,121.851c-3.04-15.583-18.13-25.738-33.712-22.698l-132.749,19.299l-90.425,15.161l-129.677-9.582
		c-15.837-0.884-29.399,11.246-30.29,27.091c-0.127,2.101,0,4.163,0.319,6.168v32.606c0,5.404,4.377,9.781,9.773,9.781
		c5.412,0,9.789-4.377,9.789-9.781v-9.805c2.276,0.732,4.696,1.194,7.194,1.337l11.062,1.774v23.964
		c0,4.369,3.534,7.902,7.911,7.902c4.362,0,7.895-3.534,7.895-7.902c0-2.547,2.069-4.6,4.6-4.6c2.547,0,4.616,2.054,4.616,4.6
		v29.478c0,5.984,4.854,10.847,10.856,10.847c5.984,0,10.855-4.863,10.855-10.847v-45.953l30.847,4.942v14.461
		c0,4.361,3.534,7.903,7.895,7.903c4.362,0,7.911-3.542,7.911-7.903v-11.922l23.319,3.74l12.113,91.014l-41.225,51.596
		c-11.699,14.636-17,22.921-18.48,51.014l-2.897,84.042c-0.987,16.888,11.906,31.373,28.794,32.368
		c16.888,0.987,31.373-11.897,32.376-28.794l4.68-83.533l12.574-14.93v11.014c0,6.002,4.855,10.856,10.856,10.856
		c5.985,0,10.839-4.854,10.839-10.856v-36.792l12.893-15.304l28.332,66.294v24.719c0,6.797,5.507,12.32,12.304,12.32
		c1.146,0,2.26-0.168,3.311-0.47l18.782,43.955c6.208,15.734,24.003,23.446,39.729,17.238c15.742-6.216,23.462-24.003,17.254-39.737
		L331.704,290.23l-8.77-106.86l35.113-8.229v29.622c0,6,4.871,10.855,10.855,10.855c6.001,0,10.856-4.855,10.856-10.855v-13.212
		c0-2.546,2.053-4.608,4.6-4.608c2.547,0,4.616,2.062,4.616,4.608c0,4.361,3.534,7.903,7.895,7.903c4.361,0,7.911-3.542,7.911-7.903
		v-27.378l14.15-3.311v15.607c0,5.992,4.855,10.855,10.855,10.855c5.985,0,10.84-4.863,10.84-10.855V155.77l0.86-0.207
		C457.067,152.523,467.223,137.434,464.182,121.851z"/>
	<path class="st0" d="M229.405,105.687c0,4.354,3.534,7.895,7.895,7.895c4.361,0,7.911-3.542,7.911-7.895V95.102
		c4.505,2.507,9.455,4.369,14.787,5.419c27.489,5.452,54.197-12.415,59.641-39.903c5.444-27.505-12.431-54.198-39.92-59.642
		c-27.489-5.444-54.182,12.423-59.641,39.92c-2.929,14.771,0.907,29.32,9.327,40.462V105.687z"/>
</g>
</svg>